<svg width="38" height="43" viewBox="0 0 38 43" fill="none" xmlns="http://www.w3.org/2000/svg">
<path d="M37 17.5833H1M27 1.91663V9.74996M11 1.91663V9.74996M10.6 41.0833H27.4C30.7603 41.0833 32.4405 41.0833 33.7239 40.443C34.8529 39.8797 35.7708 38.9809 36.346 37.8755C37 36.6188 37 34.9736 37 31.6833V15.2333C37 11.943 37 10.2978 36.346 9.0411C35.7708 7.93565 34.8529 7.03688 33.7239 6.47363C32.4405 5.83329 30.7603 5.83329 27.4 5.83329H10.6C7.23969 5.83329 5.55953 5.83329 4.27606 6.47363C3.14708 7.03688 2.2292 7.93565 1.65396 9.0411C1 10.2978 1 11.943 1 15.2333V31.6833C1 34.9736 1 36.6188 1.65396 37.8755C2.2292 38.9809 3.14708 39.8797 4.27606 40.443C5.55953 41.0833 7.23968 41.0833 10.6 41.0833Z" stroke="black" stroke-width="2" stroke-linecap="round" stroke-linejoin="round"/>
</svg>
