<svg width="43" height="42" viewBox="0 0 43 42" fill="none" xmlns="http://www.w3.org/2000/svg">
<path d="M18.4375 1.8125V4.8125M4.35004 17.75H1.08337M8.12957 8.28382L5.81968 6.1625M28.7476 8.28382L31.0574 6.1625M35.7917 17.75H32.525M10.271 17.7501C10.271 13.608 13.9274 10.2501 18.4377 10.2501C21.5125 10.2501 24.1904 11.8107 25.5835 14.1164M9.25004 40.25C4.73972 40.25 1.08337 36.8921 1.08337 32.75C1.08337 28.6079 4.73972 25.25 9.25004 25.25C10.1978 25.25 11.1078 25.3983 11.9541 25.6709C13.4163 22.1367 17.1388 19.625 21.5 19.625C25.8613 19.625 29.5838 22.1367 31.046 25.6709C31.8923 25.3983 32.8023 25.25 33.75 25.25C38.2604 25.25 41.9167 28.6079 41.9167 32.75C41.9167 36.8921 38.2604 40.25 33.75 40.25C24.2761 40.25 17.1701 40.25 9.25004 40.25Z" stroke="black" stroke-width="2" stroke-linecap="round" stroke-linejoin="round"/>
</svg>
