<svg width="19" height="19" viewBox="0 0 19 19" fill="none" xmlns="http://www.w3.org/2000/svg">
<path fill-rule="evenodd" clip-rule="evenodd" d="M13.925 12.2036H13.0955L12.8015 11.9271C14.0615 10.4938 14.7125 8.53827 14.3555 6.4599C13.862 3.61366 11.426 1.34076 8.48597 0.992658C4.04447 0.460268 0.306473 4.10509 0.852473 8.43588C1.20947 11.3026 3.54047 13.6779 6.45947 14.1591C8.59097 14.5072 10.5965 13.8724 12.0665 12.6438L12.35 12.9305V13.7393L16.8125 18.0906C17.243 18.5103 17.9465 18.5103 18.377 18.0906C18.8075 17.6708 18.8075 16.9848 18.377 16.5651L13.925 12.2036ZM7.62497 12.2036C5.01047 12.2036 2.89997 10.1457 2.89997 7.59635C2.89997 5.04702 5.01047 2.98912 7.62497 2.98912C10.2395 2.98912 12.35 5.04702 12.35 7.59635C12.35 10.1457 10.2395 12.2036 7.62497 12.2036Z" fill="#9A9AB0"/>
</svg>
